<svg width="52" height="52" viewBox="0 0 52 52" fill="none" xmlns="http://www.w3.org/2000/svg">
<path d="M26 0C11.6406 0 0 11.6406 0 26C0 38.2773 8.51172 48.5586 19.9531 51.2852C19.3633 51.1445 18.7773 50.9883 18.1992 50.8086V44.8516C18.1992 44.8516 17.2266 45.1758 15.9258 45.1758C12.2891 45.1758 10.7773 41.9297 10.3984 40.3008C10.1719 39.3086 9.57422 38.3672 8.92969 37.7891C8.16406 37.1055 7.80469 37.1055 7.80078 36.8711C7.78906 36.3789 8.45703 36.3984 8.77344 36.3984C10.3984 36.3984 11.6328 38.1289 12.2031 39.0234C13.6211 41.2305 15.1406 41.6016 15.9258 41.6016C16.8984 41.6016 17.7422 41.4531 18.3203 41.1758C18.5898 39.2852 19.4297 37.6055 20.8008 36.3984C14.7031 35.1797 10.3984 31.6836 10.3984 26C10.3984 23.0703 11.5742 20.3828 13.5312 18.207C13.332 17.6406 13 16.4922 13 14.625C13 13.3906 13.0859 11.875 13.6484 10.3984C13.6484 10.3984 17.3594 10.4258 20.8555 13.7383C22.4687 13.2695 24.1953 13 26 13C27.8047 13 29.5313 13.2695 31.1445 13.7383C34.6406 10.4258 38.3516 10.3984 38.3516 10.3984C38.918 11.875 39 13.3906 39 14.625C39 16.6406 38.7305 17.8164 38.5664 18.3203C40.4648 20.4766 41.6016 23.125 41.6016 26C41.6016 31.6836 37.2969 35.1797 31.1992 36.3984C32.8281 37.8281 33.8008 39.9141 33.8008 42.25V50.8086C33.2227 50.9883 32.6367 51.1445 32.0469 51.2852C43.4883 48.5586 52 38.2773 52 26C52 11.6406 40.3594 0 26 0ZM27.8125 51.9297C27.2148 51.9727 26.6094 52 26 52C26.6094 52 27.2148 51.9727 27.8125 51.9297ZM31.7852 51.3477C30.6211 51.6094 29.4297 51.7969 28.2109 51.8984C29.4297 51.7969 30.6211 51.6094 31.7852 51.3477ZM26 52C25.3906 52 24.7852 51.9727 24.1875 51.9297C24.7852 51.9727 25.3906 52 26 52ZM23.7891 51.8984C22.5703 51.7969 21.3789 51.6094 20.2148 51.3477C21.3789 51.6094 22.5703 51.7969 23.7891 51.8984Z" fill="#95A5A6"/>
</svg>
