<svg width="80" height="80" viewBox="0 0 80 80" fill="none" xmlns="http://www.w3.org/2000/svg">
<path d="M80 40C80 62.09 62.09 80 40 80C17.91 80 0 62.09 0 40C0 17.91 17.91 0 40 0C62.09 0 80 17.91 80 40Z" fill="url(#paint0_linear_1317_32141)"/>
<path opacity="0.05" d="M12.2378 38.932C28.5478 31.542 47.7038 23.524 50.6538 22.364C57.1578 19.806 59.9938 22.42 59.5498 26.59C59.0038 31.7 56.4158 46.57 54.8238 57.224C53.8918 63.458 50.5158 65.368 46.7058 62.95C43.8158 61.116 33.8798 54.61 31.2658 52.386C29.4838 50.87 28.2418 49.17 29.5058 47.438C29.8758 46.932 30.8218 45.912 31.3478 45.404C33.9858 42.848 33.6298 42.298 30.4398 44.58C30.0598 44.852 27.8558 46.45 26.9498 47.054C24.7298 48.534 22.6878 48.614 19.2258 47.438C16.3938 46.476 13.6738 45.734 11.9578 44.992C9.58783 43.966 8.67983 40.544 12.2378 38.932Z" fill="black"/>
<path opacity="0.07" d="M13.672 39.182C28.816 32.412 47.44 24.654 50.164 23.556C56.692 20.92 59.094 22.484 58.392 27.578C57.74 32.294 55.426 46.886 53.804 56.668C52.848 62.426 50.056 63.694 46.42 61.342C44.142 59.874 34.974 53.834 32.75 52.076C31.03 50.718 29.248 49.15 31.33 46.88C32.026 46.122 35.87 42.412 38.744 39.652C40.41 38.05 39.816 37.26 37.806 38.636C34.12 41.162 28.09 45.16 27.014 45.886C24.964 47.266 23.038 47.598 19.686 46.544C17.044 45.712 14.492 44.906 13.162 44.388C10.19 43.236 10.15 40.756 13.672 39.182Z" fill="black"/>
<path d="M15.106 39.434C29.086 33.284 47.176 25.786 49.674 24.748C56.224 22.032 58.234 22.552 57.232 28.568C56.512 32.892 54.436 47.206 52.78 56.116C51.798 61.4 49.594 62.026 46.13 59.74C44.464 58.64 36.054 53.078 34.228 51.772C32.562 50.582 30.264 49.15 33.146 46.33C34.172 45.326 40.894 38.906 46.132 33.91C46.818 33.254 45.956 32.176 45.164 32.702C38.104 37.384 28.316 43.882 27.07 44.728C25.188 46.006 23.38 46.592 20.136 45.66C17.684 44.956 15.29 44.116 14.358 43.796C10.768 42.564 11.62 40.968 15.106 39.434Z" fill="white"/>
<defs>
<linearGradient id="paint0_linear_1317_32141" x1="11.716" y1="11.716" x2="68.284" y2="68.284" gradientUnits="userSpaceOnUse">
<stop stop-color="#33BEF0"/>
<stop offset="1" stop-color="#0A85D9"/>
</linearGradient>
</defs>
</svg>
